<svg xmlns="http://www.w3.org/2000/svg" viewBox="0 0 180 100">
  <path d="M17.822 5.278c-2.631.91-5.262 3.19-6.47 5.664C10.213 13.222 10 15.305 10 25.006c0 10.613.143 11.655 1.636 14.324.853 1.628 2.631 3.581 3.982 4.363l2.418 1.497h143.928l2.418-1.497c1.352-.782 3.13-2.735 4.054-4.363C169.858 36.66 170 35.62 170 25.006c0-12.892-.71-15.496-5.048-18.296l-2.418-1.563-71.822-.13c-39.538-.065-72.32.065-72.89.262zM48.97 25.136l-.213 15.17-12.445.196c-14.364.195-16.569-.065-18.915-2.148-1.707-1.563-1.707-1.824-1.707-13.347 0-16.083-1.351-14.976 18.49-14.976H49.11l-.142 15.105zm113.565-13.478c1.778 1.563 1.778 1.759 1.778 13.023 0 6.966-.285 11.979-.783 12.826-1.849 3.126-2.062 3.126-57.174 3.126H54.8V10.03h106.027l1.707 1.627z"/>
  <path d="M30.125 14.393c-2.418.455-5.76 3.841-6.33 6.381-.283 1.562 0 2.995.855 4.688 1.35 2.409 1.35 2.539 0 4.948-1.068 2.018-1.138 2.8-.57 4.102 1.28 2.475 5.12 1.693 5.12-1.042 0-.586.64-1.628 1.422-2.278 1.992-1.629 4.694-.522 5.334 2.214.853 3.58 5.333 3.19 5.333-.522-.072-.911-.498-2.409-.996-3.32-.853-1.368-.853-1.889 0-3.386 2.418-4.363.427-9.506-4.408-11.33-2.418-.911-2.917-.976-5.76-.455zm4.692 5.665c.499.52.783 1.757.641 2.799-.142 1.432-.64 1.889-2.204 2.018-3.628.392-5.263-2.148-2.845-4.557 1.351-1.432 3.271-1.498 4.408-.261zm-19.2 36.397c-1.35.78-3.128 2.734-3.981 4.362C10.142 63.487 10 64.529 10 75.141c0 12.892.71 15.497 5.048 18.297L17.466 95h145.068l2.418-1.562c4.337-2.8 5.048-5.405 5.048-18.297 0-10.612-.142-11.655-1.564-14.324-.924-1.628-2.703-3.582-4.054-4.362l-2.418-1.498H18.036l-2.418 1.498zM48.97 74.946l.142 15.17H34.178c-19.84 0-18.49 1.043-18.49-14.649 0-6.967.285-11.98.783-12.762 1.565-2.735 4.41-3.19 18.774-2.995l13.51.13.214 15.106zM160.4 60.426c1.28.521 2.702 1.498 3.128 2.214.498.846.783 5.86.783 12.827 0 11.264 0 11.459-1.778 13.022l-1.707 1.628H54.8V59.515h51.555c42.881 0 51.983.13 54.046.911z"/>
  <path d="M28.133 63.551c-3.2 2.279-3.91 4.819-3.91 14.065 0 5.664.284 8.724.923 9.44.783.977 1.92 1.108 8.677.977l7.822-.195.213-6.446c.142-4.753-.071-6.642-.711-7.032-.498-.26-3.272-.522-6.046-.522h-5.19V71.69c0-2.994 1.351-4.492 3.912-4.232 1.564.13 2.203.652 2.843 2.475.712 1.887 1.21 2.278 2.917 2.278 1.777 0 2.062-.261 2.275-2.084.64-6.25-8.249-10.548-13.725-6.576zm8.89 17.45c0 1.889-.072 1.953-3.556 1.953-3.485 0-3.555-.064-3.555-1.953 0-1.888.07-1.953 3.555-1.953 3.484 0 3.555.065 3.555 1.953z"/>
</svg>
